<svg width="25" height="24" viewBox="0 0 25 24" fill="none" xmlns="http://www.w3.org/2000/svg">
<path d="M12.5 6C11.7583 6 11.0333 6.21993 10.4166 6.63199C9.79993 7.04404 9.31928 7.62971 9.03545 8.31494C8.75162 9.00016 8.67736 9.75416 8.82206 10.4816C8.96675 11.209 9.3239 11.8772 9.84835 12.4017C10.3728 12.9261 11.041 13.2833 11.7684 13.4279C12.4958 13.5726 13.2498 13.4984 13.9351 13.2145C14.6203 12.9307 15.206 12.4501 15.618 11.8334C16.0301 11.2167 16.25 10.4917 16.25 9.75C16.25 8.75544 15.8549 7.80161 15.1517 7.09835C14.4484 6.39509 13.4946 6 12.5 6ZM12.5 12C12.055 12 11.62 11.868 11.25 11.6208C10.88 11.3736 10.5916 11.0222 10.4213 10.611C10.251 10.1999 10.2064 9.7475 10.2932 9.31105C10.3801 8.87459 10.5943 8.47368 10.909 8.15901C11.2237 7.84434 11.6246 7.63005 12.061 7.54323C12.4975 7.45642 12.9499 7.50097 13.361 7.67127C13.7722 7.84157 14.1236 8.12996 14.3708 8.49997C14.618 8.86998 14.75 9.30499 14.75 9.75C14.7494 10.3466 14.5122 10.9185 14.0903 11.3403C13.6685 11.7622 13.0966 11.9994 12.5 12Z" fill="white"/>
<path d="M12.5 1.5C10.4233 1.5 8.39323 2.11581 6.66652 3.26957C4.9398 4.42332 3.59399 6.0632 2.79927 7.98182C2.00455 9.90045 1.79661 12.0116 2.20176 14.0484C2.6069 16.0852 3.60693 17.9562 5.07538 19.4246C6.54383 20.8931 8.41476 21.8931 10.4516 22.2982C12.4884 22.7034 14.5996 22.4955 16.5182 21.7007C18.4368 20.906 20.0767 19.5602 21.2304 17.8335C22.3842 16.1068 23 14.0767 23 12C22.9968 9.2162 21.8896 6.54733 19.9211 4.57889C17.9527 2.61044 15.2838 1.50318 12.5 1.5ZM8 19.7828V18.75C8.0006 18.1534 8.23784 17.5815 8.65967 17.1597C9.0815 16.7378 9.65345 16.5006 10.25 16.5H14.75C15.3466 16.5006 15.9185 16.7378 16.3403 17.1597C16.7622 17.5815 16.9994 18.1534 17 18.75V19.7828C15.6344 20.5802 14.0814 21.0004 12.5 21.0004C10.9186 21.0004 9.36563 20.5802 8 19.7828ZM18.494 18.6945C18.4791 17.7107 18.0782 16.7722 17.3779 16.0812C16.6776 15.3901 15.7339 15.0019 14.75 15H10.25C9.26614 15.0019 8.32238 15.3901 7.62207 16.0812C6.92176 16.7722 6.52095 17.7107 6.506 18.6945C5.14593 17.4801 4.1868 15.8812 3.75563 14.1095C3.32446 12.3378 3.44158 10.477 4.09148 8.77339C4.74139 7.06978 5.89342 5.60375 7.39503 4.56942C8.89665 3.5351 10.677 2.98127 12.5004 2.98127C14.3237 2.98127 16.1041 3.5351 17.6057 4.56942C19.1073 5.60375 20.2594 7.06978 20.9093 8.77339C21.5592 10.477 21.6763 12.3378 21.2451 14.1095C20.814 15.8812 19.8548 17.4801 18.4948 18.6945H18.494Z" fill="white"/>
</svg>
